<?xml version="1.0" encoding="UTF-8"?>
<svg xmlns="http://www.w3.org/2000/svg" xmlns:xlink="http://www.w3.org/1999/xlink" viewBox="0 0 780.16 503.47">
  <defs>
    <style>
      .cls-1 {
        fill: url(#New_Gradient_Swatch);
      }

      .cls-2 {
        fill: #43b049;
      }

      .cls-3 {
        fill: #1b5336;
      }
    </style>
    <linearGradient id="New_Gradient_Swatch" data-name="New Gradient Swatch" x1="8" y1="123.3" x2="772.33" y2="123.3" gradientUnits="userSpaceOnUse">
      <stop offset=".2" stop-color="#0f4d2d"/>
      <stop offset=".31" stop-color="#0e5831"/>
      <stop offset=".52" stop-color="#0b773c"/>
      <stop offset=".63" stop-color="#0a8b44"/>
    </linearGradient>
  </defs>
  <g id="Top_Fish" data-name="Top Fish">
    <g>
      <path class="cls-2" d="M48.4,308.67h53l45.4,143h-43.4l-8-26.6H48.8l-8,26.6H2.6l45.8-143Zm7.8,88.2h32l-16-55-16,55Z"/>
      <path class="cls-3" d="M160.8,418.07v-46.6h-12.6v-24.4h12.6v-21.8h35.8v21.8h20.6v24.4h-20.6v43.2c0,7.6,3.8,11,10.6,11,4,0,7-.6,10.2-1.8v27.2c-4.6,1.2-11.4,3-19.8,3-23.6,0-36.8-11.4-36.8-36Z"/>
      <path class="cls-3" d="M234.8,304.87h35.6v146.8h-35.6v-146.8Z"/>
      <path class="cls-3" d="M287.4,400.47v-1.6c0-35.6,20.4-54.6,43.8-54.6,15.8,0,25.2,6.8,31.2,17.4v-14.6h35.8v104.6h-35.8v-16.8c-5.4,10.6-16.4,19.2-31.4,19.2-23.2,0-43.6-17.4-43.6-53.6Zm76-.6v-1.6c0-18.2-7.4-27-19.6-27s-20,9-20,27.2v1.6c0,17.6,7.6,26.6,19.4,26.6s20.2-9,20.2-26.8Z"/>
      <path class="cls-3" d="M419.39,347.07h35.8v16.8c5.6-10.8,17-19.6,34.4-19.6,20.2,0,34.2,12.6,34.2,39.4v68h-35.8v-60.8c0-11.8-4.6-17.6-15-17.6s-17.8,6.4-17.8,19.8v58.6h-35.8v-104.6Z"/>
      <path class="cls-3" d="M548.99,418.07v-46.6h-12.6v-24.4h12.6v-21.8h35.8v21.8h20.6v24.4h-20.6v43.2c0,7.6,3.8,11,10.6,11,4,0,7-.6,10.2-1.8v27.2c-4.6,1.2-11.4,3-19.8,3-23.6,0-36.8-11.4-36.8-36Z"/>
      <path class="cls-2" d="M672.15,308.13v25.02h-12.01v93.49h12.01v25.02h-56.36v-25.02h12.01v-93.49h-12.01v-25.02h56.36Z"/>
      <path class="cls-3" d="M680.36,418.67h33c1.2,7.6,4.6,12.6,14.8,12.6,8.8,0,12.8-3.4,12.8-9.4s-5-8.2-19.4-10.2c-28-3.6-39.8-12-39.8-33,0-23.2,20.6-34.4,44.6-34.4,26,0,44,8.8,46.4,34h-32.4c-1.6-7.4-5.2-11.6-13.4-11.6s-11.8,3.4-11.8,8.8,4.8,8,17.6,9.6c29,3.6,43,10.8,43,33,0,24.8-18.4,36-47.4,36s-47.2-12.6-48-35.4Z"/>
    </g>
  </g>
  <g id="Layer_5" data-name="Layer 5">
    <g>
      <path class="cls-1" d="M746.95,214.13c-16.2,3.5-31.92,5.65-47.18,6.63-5.45-.01-11.2-.25-17.25-.76-17.85-1.51-38.89-3.67-61.46-12.65-122.29-48.64-136.01-123.66-226.89-187.4-32.9-23.07-104.45-31.45-133.22,4.25-1.93,2.4,.66,5.78,3.5,4.57,21.47-9.15,46.88,7.17,50.1,31.91-50.75-9.31-91.96,5.39-108.31,34.44-.92,1.63,.67,3.62,2.44,2.99,14.64-5.21,36.82,10.47,34.67,36.15-28.25,3.74-50.09,16.58-61.05,35.73-1.02,1.79,.75,3.81,2.72,3.18,8.56-2.76,19.55,1.45,26.76,10.49-50.33,39.51-153.73,60.49-203.78,30.03,99.72,72.43,203.38,4.75,304.96-9.91,61.98-8.95,98.67-2.14,149.65,14.74,12.51,5.85,25.48,10.95,38.92,14.89,32.4,9.5,70.62,13.65,108.31,13.15,27.39,.39,56.51-1.98,84.18-9.32,34.47-7.65,62.98-19.76,78.31-35.54-5.06,3.89-13.47,8.64-25.38,12.43Z"/>
      <path class="cls-2" d="M550.92,206.71h-.01c-34.11-14.29-119.89-34.99-198.04-34.99s-137.48,39.25-137.48,39.25h0c-53.19,34.31-146.15,50.58-192.79,22.2,99.72,72.43,203.38,4.75,304.96-9.91,72.89-10.52,110.78,.74,178.1,24.55,27.63,9.77,168.34,42.69,258-14.64-83.01,18.5-153.68,1.51-212.73-26.45Z"/>
      <path class="cls-3" d="M554.58,228.62h-.01c-34.11-14.29-119.89-34.99-198.04-34.99s-137.48,39.25-137.48,39.25h0c-53.19,34.31-146.15,50.58-192.79,22.2,99.72,72.43,203.38,4.75,304.96-9.91,72.89-10.52,110.78,.74,178.1,24.55,27.63,9.77,168.34,42.69,258-14.64-83.01,18.5-153.68,1.51-212.73-26.45Z"/>
    </g>
  </g>
</svg>